{"title":"New Years Eve 2011 CAM x264-BBnRG","uid":6903738,"size":611745275,"categoryP":"video","categoryS":"movies","magnet":"?xt=urn:btih:8cb4235cf6f630c117348439d6256c31a5e66b36&amp;dn=New+Years+Eve+2011+CAM+x264-BBnRG&amp;tr=udp%3A%2F%2Ftracker.openbittorrent.com%3A80&amp;tr=udp%3A%2F%2Fopen.demonii.com%3A1337&amp;tr=udp%3A%2F%2Ftracker.coppersurfer.tk%3A6969&amp;tr=udp%3A%2F%2Fexodus.desync.com%3A6969","seeders":2,"leechers":0,"uploader":"Test_Verify","files":9,"time":1324498101,"description":"Presents\n\nNew Years Eve (2011) CAM x264-BBnRG\n\nFormat: MPEG-4\nFormat profile: Base Media / Version 2\nCodec ID: mp42\nFile size: 577 MiB\nDuration: 1h 48mn\nOverall bit rate: 745 Kbps\n\nVideo\nID: 1\nFormat: AVC\nFormat/Info: Advanced Video Codec\nFormat profile: &lt;a class=&quot;__cf_email__&quot; href=&quot;/cdn-cgi/l/email-protection&quot; data-cfemail=&quot;87cfeee0efc7cbb4a9b7&quot;&gt;[email&amp;#160;protected]&lt;/a&gt;&lt;script cf-hash='f9e31' type=&quot;text/javascript&quot;&gt;\n/* &lt;![CDATA[ */!function(){try{var t=&quot;currentScript&quot;in document?document.currentScript:function(){for(var t=document.getElementsByTagName(&quot;script&quot;),e=t.length;e--;)if(t[e].getAttribute(&quot;cf-hash&quot;))return t[e]}();if(t&amp;&amp;t.previousSibling){var e,r,n,i,c=t.previousSibling,a=c.getAttribute(&quot;data-cfemail&quot;);if(a){for(e=&quot;&quot;,r=parseInt(a.substr(0,2),16),n=2;a.length-n;n+=2)i=parseInt(a.substr(n,2),16)^r,e+=String.fromCharCode(i);e=document.createTextNode(e),c.parentNode.replaceChild(e,c)}}}catch(u){}}();/* ]]&gt; */&lt;/script&gt;\nFormat settings, CABAC: Yes\nFormat settings, ReFrames: 4 frames\nCodec ID: avc1\nCodec ID/Info: Advanced Video Coding\nDuration: 1h 48mn\nBit rate mode: Variable\nBit rate: 578 Kbps\nWidth: 656 pixels\nHeight: 352 pixels\nDisplay aspect ratio: 16:9\nOriginal display aspect ratio: 16:9\nFrame rate mode: Constant\nFrame rate: 29.970 fps\nColor space: YUV\nChroma subsampling: 4:2:0\nBit depth: 8 bits\nScan type: Progressive\nBits/(Pixel*Frame): 0.084\nStream size: 449 MiB (78%)\nWriting library: x264 core 112\n\nAudio\nID: 2\nFormat: AAC\nFormat/Info: Advanced Audio Codec\nFormat profile: LC\nCodec ID: 40\nDuration: 1h 48mn\nBit rate mode: Variable\nBit rate: 160 Kbps\nMaximum bit rate: 193 Kbps\nChannel(s): 2 channels\nChannel positions: Front: L R\nSampling rate: 48.0 KHz\nCompression mode: Lossy\nStream size: 124 MiB (21%)\nLanguage: English\n\nNew Year's Eve (2011)\nThe lives of several couples and singles in New York intertwine over\nthe course of New Year's Eve\n\nRatings: 4.9/10 from 4,383 users Metascore: 22/100 &lt;a href=&quot;\nhttp://www.imdb.com/title/tt1598822/&quot; rel=&quot;nofollow&quot; target=&quot;_NEW&quot;&gt;\nhttp://www.imdb.com/title/tt1598822/&lt;/a&gt;\n\nSource: UnKnOwN (Thanks!)\nEncoder: SMiLE\n\nSource was fantastic for a CAM. We just did our usual and ran a few\nfilters over the video before then dropping it in for conversion\nWe were going to do a version with filtered audio but the audio on\nthis is already better than most CAM's. Happy Holidays + Enjoy!\n\nTo Our Friends &amp; To The Past, Present And Future Of p2p\n\nIf You Have Anything That You Can Provide Us With:\n\nCome And Find Us","torrent":{"xt":"urn:btih:8cb4235cf6f630c117348439d6256c31a5e66b36","amp;dn":"New+Years+Eve+2011+CAM+x264-BBnRG","amp;tr":["udp%3A%2F%2Ftracker.openbittorrent.com%3A80","udp%3A%2F%2Fopen.demonii.com%3A1337","udp%3A%2F%2Ftracker.coppersurfer.tk%3A6969","udp%3A%2F%2Fexodus.desync.com%3A6969"],"infoHash":"8cb4235cf6f630c117348439d6256c31a5e66b36","infoHashBuffer":{"type":"Buffer","data":[140,180,35,92,246,246,48,193,23,52,132,57,214,37,108,49,165,230,107,54]},"announce":[],"urlList":[]}}